<svg id="visual" viewBox="0 0 900 450" width="900" height="450" xmlns="http://www.w3.org/2000/svg" xmlns:xlink="http://www.w3.org/1999/xlink" version="1.1"><rect x="0" y="0" width="900" height="450" fill="#5b0287"></rect><path d="M0 308L75 305.3C150 302.7 300 297.3 450 291.3C600 285.3 750 278.7 825 275.3L900 272L900 451L825 451C750 451 600 451 450 451C300 451 150 451 75 451L0 451Z" fill="#7000b0"></path><path d="M0 361L75 353.8C150 346.7 300 332.3 450 335.5C600 338.7 750 359.3 825 369.7L900 380L900 451L825 451C750 451 600 451 450 451C300 451 150 451 75 451L0 451Z" fill="#5d29cf"></path><path d="M0 371L75 378.8C150 386.7 300 402.3 450 411.2C600 420 750 422 825 423L900 424L900 451L825 451C750 451 600 451 450 451C300 451 150 451 75 451L0 451Z" fill="#2a42ee"></path></svg>