<svg id="visual" viewBox="0 0 900 450" width="900" height="450" xmlns="http://www.w3.org/2000/svg" xmlns:xlink="http://www.w3.org/1999/xlink" version="1.1"><rect x="0" y="0" width="900" height="450" fill="#5b0287"></rect><path d="M0 194L75 213.5C150 233 300 272 450 283.2C600 294.3 750 277.7 825 269.3L900 261L900 451L825 451C750 451 600 451 450 451C300 451 150 451 75 451L0 451Z" fill="#4f05a8"></path><path d="M0 254L75 265.3C150 276.7 300 299.3 450 317.8C600 336.3 750 350.7 825 357.8L900 365L900 451L825 451C750 451 600 451 450 451C300 451 150 451 75 451L0 451Z" fill="#4729ca"></path><path d="M0 446L75 444.3C150 442.7 300 439.3 450 426.8C600 414.3 750 392.7 825 381.8L900 371L900 451L825 451C750 451 600 451 450 451C300 451 150 451 75 451L0 451Z" fill="#2a42ee"></path></svg>