<svg id="visual" viewBox="0 0 900 450" width="900" height="450" xmlns="http://www.w3.org/2000/svg" xmlns:xlink="http://www.w3.org/1999/xlink" version="1.1"><rect x="0" y="0" width="900" height="450" fill="#2a42ee"></rect><path d="M0 335L75 327.3C150 319.7 300 304.3 450 306.3C600 308.3 750 327.7 825 337.3L900 347L900 451L825 451C750 451 600 451 450 451C300 451 150 451 75 451L0 451Z" fill="#0066ff"></path><path d="M0 386L75 380.2C150 374.3 300 362.7 450 353C600 343.3 750 335.7 825 331.8L900 328L900 451L825 451C750 451 600 451 450 451C300 451 150 451 75 451L0 451Z" fill="#008cff"></path><path d="M0 406L75 411.2C150 416.3 300 426.7 450 427.8C600 429 750 421 825 417L900 413L900 451L825 451C750 451 600 451 450 451C300 451 150 451 75 451L0 451Z" fill="#4facf7"></path></svg>