<?xml version="1.0" encoding="utf-8"?>
<!-- Generator: Adobe Illustrator 25.2.3, SVG Export Plug-In . SVG Version: 6.00 Build 0)  -->
<svg version="1.1" id="Layer_1" xmlns="http://www.w3.org/2000/svg" xmlns:xlink="http://www.w3.org/1999/xlink" x="0px" y="0px"
	 viewBox="0 0 812 1072.57" style="enable-background:new 0 0 812 1072.57;" xml:space="preserve">
<g>
	<g>
		<path d="M0,228.51c270.91,0,541.26,0,812,0c0,281.38,0,562.46,0,844.06c-270.54,0-541.04,0-812,0C0,791.32,0,510.25,0,228.51z
			 M407.78,603.59c0,3.9,0,7.01,0,10.12c0,79.31-0.08,158.62,0.1,237.93c0.02,10.25,0.76,20.57,2.18,30.72
			c3.78,26.98,14.53,51.29,32.43,71.64c29.72,33.77,68.95,48.48,112.72,53.01c18.87,1.95,37.54,0.46,56.19-2.63
			c29.64-4.91,56.81-15.87,79.46-35.57c33.28-28.95,49.29-66.59,49.53-110.4c0.45-82.43,0.13-164.87,0.13-247.3
			c0-2.52,0-5.03,0-7.36c-32.96,0-64.78,0-96.89,0c0,3.42,0.01,6.29,0,9.16c-0.4,82.86-0.6,165.72-1.31,248.58
			c-0.24,27.68-17.63,46.76-44.06,54.2c-13.32,3.75-26.92,4.27-40.46,1.8c-19.36-3.53-35.64-11.99-45.33-30.23
			c-5.78-10.88-7.5-22.67-7.51-34.7c-0.1-80.03-0.05-160.06-0.05-240.1c0-2.82,0-5.65,0-8.87
			C472.34,603.59,440.5,603.59,407.78,603.59z M111.14,878.32c-16.42,23.65-33.33,47.99-50.38,72.55
			c17.27,16.79,36.53,29.56,58.02,38.61c36.67,15.44,74.87,22.61,114.49,15.8c15.63-2.69,31.77-6.39,45.84-13.35
			c44.14-21.84,69.67-63.71,66.86-115.55c-1.91-35.29-18.66-61.8-46.82-80.4c-19.18-12.66-40.97-21.44-61.86-31.41
			c-19.36-9.24-40.57-14.42-58.26-27.36c-10.08-7.37-13.97-16.17-10.52-28c3.21-11,11.64-16.66,21.97-19.74
			c24.38-7.27,47.42-1.37,69.42,8.81c13.08,6.05,25.17,14.25,38.13,21.73c12.47-23.82,24.97-48,37.8-72
			c2.91-5.44,1.4-8.36-3.15-11.83c-27.9-21.24-59.2-33.35-94.01-37.52c-33.68-4.04-66.18-1.52-97.41,12.66
			c-35.45,16.09-59.91,41.8-68.24,80.35c-9.63,44.53,2.48,82.08,38.95,110.86c19.77,15.6,42.33,25.94,65.16,35.9
			c20.13,8.78,41.31,15.36,59.41,28.4c6.61,4.76,11.71,10.24,12.16,19.13c0.94,18.83-14.04,30.01-33.67,31.59
			c-21.59,1.73-41.97-3.13-60.83-13.3C139.75,896.46,126.03,887.36,111.14,878.32z M540.4,529.38c16.38,0,32.19,0.17,48-0.04
			c21.26-0.28,42.58,1.46,63.67-3.27c36.92-8.27,63.6-28.75,78-64.15c9.63-23.7,10.17-48.43,7.3-73.4
			c-2.79-24.23-12.19-45.68-29.31-63.09c-23.33-23.73-53.11-32.14-85.33-32.92c-24.98-0.61-49.99-0.13-74.99-0.1
			c-2.33,0-4.66,0.25-7.34,0.4C540.4,371.65,540.4,449.91,540.4,529.38z M478.05,473.71c-12.31,7.25-23.62,15.37-36.06,20.98
			c-40.2,18.13-87.51,7.65-112.72-33.54c-12.7-20.74-16.02-43.66-12.86-67.49c2.65-20.01,11.03-37.99,25.66-51.57
			c23.59-21.89,52.27-27.66,83.45-20.98c17.08,3.66,31.85,12.44,46.33,22.83c5.58-8.25,10.99-16.27,16.34-24.19
			c-42.9-40.43-129.88-44.73-176.5,7.24c-43.96,49.01-39.95,130.23,7.24,174.79c49.94,47.16,133.76,38.86,175.62-6.16
			C488.78,487.96,482.95,480.22,478.05,473.71z M70.77,292.84c0,9.39,0,18.33,0,27.97c27.09,0,53.65,0,80.97,0
			c0,69.75,0,138.79,0,208.04c11.43,0,22.07,0,33.16,0c0-3.38,0-6.24,0-9.1c0-63.66,0.09-127.33-0.14-190.99
			c-0.02-6.3,1.63-8.27,8.04-8.17c21.86,0.37,43.73,0.14,65.6,0.14c2.52,0,5.04,0,7.48,0c0-10,0-18.78,0-27.9
			C200.63,292.84,135.9,292.84,70.77,292.84z"/>
	</g>
	<g>
		<path d="M810.79,197.33c-269.78,0-539.57,0-809.35,0c-0.23-0.38-0.46-0.77-0.7-1.15c2.47-1.43,4.87-3.01,7.43-4.26
			c51.83-25.38,103.68-50.73,155.54-76.07c28.62-13.98,57.24-27.95,85.88-41.89c43.29-21.07,86.59-42.1,129.9-63.14
			c6.88-3.34,13.62-7.09,20.76-9.73c3.37-1.24,8.17-1.6,11.26-0.13c39.34,18.76,78.51,37.88,117.68,56.99
			c78.15,38.13,156.28,76.31,234.42,114.45c15.87,7.75,31.76,15.46,47.64,23.19C811.09,196.17,810.94,196.75,810.79,197.33z"/>
	</g>
	<g>
		<path d="M573.14,499.45c0-58.98,0-118.28,0-177.64c0.74-0.34,1.37-0.91,1.99-0.89c21.03,0.72,42.37-0.49,63.03,2.7
			c35.99,5.56,59.7,30.46,64.79,66.94c2.73,19.59,2.52,39.13-4.31,58.06c-10.83,30-33.2,46.7-63.87,50.39
			C614.72,501.4,594.17,499.45,573.14,499.45z"/>
	</g>
</g>
</svg>
